<?xml version="1.0" encoding="UTF-8"?>
<svg xmlns="http://www.w3.org/2000/svg" viewBox="0 0 800 1000" width="100%">
  <style>
    .regione {
      fill: #cccccc;
      stroke: #333;
      stroke-width: 1.5;
      cursor: pointer;
      transition: opacity 0.3s;
    }
    .regione:hover {
      opacity: 0.7;
    }
    .regione-verde { fill: #28a745; }
    .regione-giallo { fill: #ffc107; }
    .regione-arancione { fill: #fd7e14; }
    .regione-rosso { fill: #dc3545; }
  </style>
  <path id="Abruzzo" class="regione" d="M 487.70 467.23 L 492.66 467.73 L 495.92 463.16 L 498.32 465.64 L 499.27 462.40 L 502.46 460.79 L 503.89 462.26 L 500.89 455.70 L 509.64 448.80 L 513.40 452.79 L 515.56 451.35 L 519.75 454.55 L 520.55 461.00 L 522.77 461.20 L 541.38 438.92 L 540.12 437.92 L 541.24 435.71 L 537.36 432.71 L 536.99 426.66 L 524.16 420.82 L 518.26 412.13 L 499.03 395.66 L 491.02 382.62 L 486.08 367.38 L 479.49 369.08 L 472.72 371.15 L 469.97 374.61 L 461.71 373.82 L 458.83 380.66 L 452.63 384.52 L 449.49 383.37 L 451.14 387.64 L 453.64 388.20 L 452.72 392.48 L 446.29 394.28 L 439.77 392.79 L 437.49 396.71 L 438.93 401.74 L 434.95 404.67 L 439.94 409.20 L 437.33 411.87 L 451.82 426.48 L 443.43 430.86 L 433.10 426.69 L 432.95 429.64 L 429.49 431.31 L 429.23 437.27 L 431.67 440.38 L 434.24 439.27 L 450.83 447.64 L 451.79 456.51 L 454.18 455.10 L 464.09 461.75 L 468.95 457.05 L 474.18 458.06 L 476.28 461.92 L 484.54 463.33 L 487.70 467.23 Z"/>
  <path id="Basilicata" class="regione" d="M 660.52 597.09 L 663.60 594.39 L 674.77 573.99 L 670.69 569.08 L 665.41 567.23 L 666.48 564.91 L 664.46 561.00 L 665.86 549.97 L 663.89 548.79 L 665.71 547.85 L 656.19 543.74 L 655.95 545.95 L 653.61 544.70 L 653.80 546.94 L 651.40 543.85 L 644.95 548.39 L 635.74 538.82 L 632.31 531.00 L 629.78 530.08 L 627.10 532.65 L 617.86 527.62 L 621.08 524.90 L 621.96 521.20 L 616.37 515.01 L 611.06 512.59 L 605.96 516.90 L 592.86 516.05 L 590.13 519.56 L 592.01 524.45 L 589.13 531.81 L 585.14 534.93 L 578.05 533.89 L 579.56 537.71 L 576.84 537.84 L 579.75 539.82 L 579.81 547.01 L 587.61 552.01 L 584.15 556.53 L 589.90 559.92 L 589.87 566.54 L 600.82 575.71 L 601.89 580.83 L 606.98 584.33 L 606.29 588.58 L 602.17 590.44 L 600.24 593.65 L 600.54 597.19 L 597.09 600.51 L 598.66 602.33 L 596.68 603.38 L 603.74 613.27 L 607.85 606.79 L 612.82 608.45 L 614.75 606.85 L 621.31 607.49 L 619.79 610.48 L 622.48 615.64 L 629.50 613.56 L 633.08 615.55 L 633.06 613.02 L 636.55 612.24 L 641.77 615.33 L 640.96 612.22 L 644.83 605.54 L 646.28 595.03 L 660.52 597.09 Z"/>
  <path id="Calabria" class="regione" d="M 603.74 613.27 L 605.91 618.21 L 604.59 620.54 L 607.67 633.64 L 611.41 644.06 L 619.14 653.34 L 622.61 664.98 L 625.65 687.02 L 629.34 693.71 L 633.20 695.97 L 633.47 702.44 L 631.39 709.90 L 628.12 712.97 L 618.46 712.63 L 608.90 719.02 L 608.29 721.21 L 614.83 728.40 L 607.66 747.57 L 596.11 753.25 L 597.40 761.20 L 595.71 764.75 L 597.42 769.19 L 595.93 770.96 L 598.77 776.27 L 604.20 779.40 L 623.19 778.72 L 628.57 769.88 L 629.84 761.38 L 637.80 750.98 L 640.75 747.63 L 649.19 744.32 L 655.87 737.11 L 655.07 716.16 L 653.55 713.59 L 658.02 705.36 L 676.30 695.67 L 682.06 694.83 L 689.32 698.59 L 696.41 688.00 L 692.68 685.86 L 690.21 680.82 L 692.79 672.64 L 690.10 668.74 L 690.28 664.25 L 693.32 656.50 L 686.92 653.58 L 684.87 649.66 L 674.77 645.12 L 668.64 638.29 L 658.91 638.23 L 652.48 634.38 L 653.21 629.75 L 650.83 627.50 L 650.71 623.28 L 659.45 610.51 L 657.65 603.36 L 660.52 597.09 L 646.28 595.03 L 644.83 605.54 L 640.96 612.22 L 641.77 615.33 L 636.55 612.24 L 633.06 613.02 L 633.08 615.55 L 629.50 613.56 L 622.48 615.64 L 619.79 610.48 L 621.31 607.49 L 614.75 606.85 L 612.82 608.45 L 607.85 606.79 L 603.74 613.27 Z"/>
  <path id="Campania" class="regione" d="M 506.26 562.22 L 508.51 561.05 L 504.12 560.72 L 504.02 562.70 L 506.26 562.22 Z M 597.09 600.51 L 600.54 597.19 L 600.24 593.65 L 602.17 590.44 L 606.29 588.58 L 606.98 584.33 L 601.89 580.83 L 600.82 575.71 L 589.87 566.54 L 589.90 559.92 L 584.15 556.53 L 587.61 552.01 L 579.81 547.01 L 579.75 539.82 L 576.84 537.84 L 579.56 537.71 L 578.05 533.89 L 585.14 534.93 L 589.13 531.81 L 592.01 524.45 L 590.13 519.56 L 581.07 515.40 L 577.89 516.33 L 577.50 516.26 L 574.07 516.44 L 568.88 511.84 L 572.20 507.82 L 571.15 504.64 L 573.04 503.53 L 568.24 500.48 L 564.95 500.96 L 563.77 497.93 L 560.03 496.67 L 559.15 493.38 L 561.70 491.85 L 561.86 488.62 L 555.90 483.92 L 546.24 489.03 L 541.66 486.76 L 539.68 490.24 L 535.21 490.18 L 530.03 494.06 L 515.93 487.50 L 506.87 483.02 L 502.58 482.74 L 502.02 484.55 L 499.19 482.21 L 496.48 487.18 L 498.60 492.19 L 494.18 491.67 L 490.05 485.90 L 482.60 489.61 L 484.42 499.55 L 476.26 505.75 L 492.56 530.23 L 494.14 541.46 L 497.19 542.57 L 496.05 539.16 L 498.17 538.11 L 503.43 541.46 L 508.98 537.03 L 516.76 544.09 L 520.86 545.36 L 522.11 549.34 L 516.92 554.23 L 513.16 555.03 L 512.18 559.95 L 522.53 555.09 L 527.99 556.43 L 531.47 553.33 L 535.68 554.59 L 537.39 551.85 L 540.99 551.29 L 547.92 558.93 L 555.35 574.68 L 555.24 577.40 L 551.88 579.17 L 551.80 584.12 L 549.59 586.81 L 554.83 588.82 L 557.97 592.83 L 563.86 592.75 L 572.75 600.80 L 572.51 604.88 L 575.55 604.29 L 578.23 607.01 L 582.29 607.69 L 589.35 600.83 L 595.37 600.95 L 596.68 603.38 L 598.66 602.33 L 597.09 600.51 Z M 484.95 549.15 L 488.45 549.07 L 489.30 546.43 L 482.65 544.27 L 481.90 548.23 L 484.95 549.15 Z M 493.49 544.27 L 492.00 543.37 L 490.80 545.53 L 493.49 544.27 Z"/>
  <path id="Emilia-Romagna" class="regione" d="M 390.29 284.23 L 389.62 283.89 L 388.45 284.04 L 390.29 284.23 Z M 389.46 279.55 L 396.47 276.64 L 395.18 282.87 L 397.88 284.40 L 398.23 287.13 L 401.25 285.36 L 402.67 289.89 L 406.60 290.49 L 407.24 288.06 L 410.52 286.62 L 411.54 278.38 L 397.83 268.50 L 386.30 253.36 L 382.05 237.78 L 379.17 215.25 L 381.98 206.18 L 385.16 207.74 L 383.45 209.68 L 388.80 210.14 L 385.36 205.53 L 382.46 204.77 L 381.78 201.92 L 381.25 197.82 L 372.70 199.09 L 369.86 195.49 L 361.30 194.22 L 350.97 195.07 L 339.26 202.38 L 334.03 198.49 L 327.10 198.99 L 326.94 197.25 L 318.93 196.24 L 317.06 198.22 L 309.39 198.64 L 304.34 196.18 L 292.63 200.37 L 283.26 197.34 L 282.22 193.78 L 280.13 196.27 L 279.61 194.23 L 275.80 199.33 L 268.95 200.34 L 263.56 197.83 L 261.64 194.41 L 258.42 195.93 L 246.24 189.46 L 241.64 191.15 L 240.97 189.26 L 238.91 189.71 L 234.99 182.19 L 230.49 184.88 L 230.83 181.95 L 228.66 182.33 L 228.18 182.61 L 229.10 186.45 L 225.37 185.21 L 224.44 188.77 L 219.95 183.74 L 217.82 188.26 L 212.62 186.36 L 211.55 182.03 L 209.33 184.88 L 206.85 182.15 L 205.60 183.05 L 207.02 185.42 L 205.78 186.63 L 203.69 184.52 L 198.03 186.27 L 189.48 201.75 L 193.61 203.90 L 194.98 207.82 L 190.11 211.94 L 193.02 215.05 L 191.49 217.48 L 192.55 218.71 L 188.35 219.61 L 186.79 216.60 L 186.92 219.18 L 184.57 219.07 L 184.74 225.11 L 190.97 225.59 L 193.69 228.08 L 197.70 226.16 L 202.72 229.34 L 203.53 235.93 L 201.74 236.01 L 199.79 241.24 L 210.56 240.18 L 215.67 245.60 L 220.39 243.60 L 224.18 237.28 L 233.80 237.43 L 235.98 239.68 L 235.02 242.41 L 236.35 243.68 L 241.99 247.22 L 245.06 246.74 L 251.94 253.66 L 255.33 252.35 L 266.69 257.44 L 269.26 262.89 L 273.40 266.22 L 275.61 265.92 L 276.71 262.65 L 283.23 262.93 L 294.02 270.73 L 300.09 264.42 L 299.78 266.70 L 302.80 268.41 L 316.51 267.26 L 312.16 263.35 L 317.60 263.02 L 326.57 256.09 L 332.65 262.84 L 339.00 262.78 L 337.03 266.60 L 347.78 265.83 L 340.92 276.73 L 345.49 282.36 L 345.05 286.02 L 353.46 291.77 L 357.82 291.38 L 362.73 295.58 L 370.46 296.26 L 373.79 282.36 L 379.88 283.14 L 384.23 279.15 L 389.46 279.55 Z"/>
  <path id="Friuli Venezia Giulia" class="regione" d="M 433.92 139.89 L 439.06 134.17 L 455.49 137.35 L 462.79 133.08 L 460.54 131.58 L 462.36 127.33 L 467.87 129.46 L 475.60 136.87 L 476.67 139.16 L 475.06 140.30 L 477.08 140.60 L 476.95 142.50 L 479.51 142.34 L 473.67 143.96 L 481.12 145.01 L 486.18 140.99 L 478.27 131.62 L 465.57 126.32 L 464.25 122.55 L 468.26 115.80 L 468.59 111.85 L 461.40 113.23 L 457.92 109.93 L 459.99 107.54 L 459.22 105.59 L 468.64 99.08 L 469.94 95.70 L 458.37 91.84 L 454.54 93.39 L 451.48 85.79 L 456.13 83.03 L 455.53 80.64 L 463.63 77.49 L 465.69 74.07 L 471.54 74.02 L 473.13 67.15 L 451.28 62.50 L 442.81 64.78 L 438.25 61.70 L 410.36 57.90 L 411.44 65.44 L 403.84 68.05 L 405.56 71.92 L 397.47 71.98 L 392.61 78.03 L 393.15 79.86 L 386.09 84.05 L 384.15 87.88 L 385.14 90.70 L 392.07 93.22 L 392.13 95.53 L 395.26 97.86 L 394.49 101.81 L 389.01 107.05 L 390.54 114.09 L 395.88 116.86 L 398.93 124.55 L 401.45 125.74 L 402.34 123.78 L 406.36 127.76 L 413.44 122.46 L 415.13 125.33 L 418.59 122.79 L 423.00 125.56 L 425.02 123.11 L 427.05 125.77 L 425.69 127.84 L 428.26 130.07 L 427.97 133.17 L 429.34 132.24 L 431.46 138.81 L 433.92 139.89 Z"/>
  <path id="Lazio" class="regione" d="M 424.61 534.25 L 427.14 529.68 L 423.95 531.49 L 424.61 534.25 Z M 328.55 409.77 L 342.08 419.14 L 352.91 438.85 L 358.20 438.16 L 372.53 448.42 L 376.39 455.16 L 377.76 462.68 L 391.28 471.01 L 403.34 487.54 L 406.19 486.46 L 412.46 490.53 L 420.62 491.50 L 426.00 496.22 L 430.51 505.52 L 445.45 499.67 L 462.64 507.19 L 465.22 507.13 L 463.84 505.16 L 467.25 502.60 L 476.26 505.75 L 484.42 499.55 L 482.60 489.61 L 490.05 485.90 L 491.00 484.28 L 489.74 483.29 L 493.23 480.88 L 491.80 479.59 L 493.13 478.19 L 491.40 476.63 L 490.73 470.07 L 487.70 467.23 L 484.54 463.33 L 476.28 461.92 L 474.18 458.06 L 468.95 457.05 L 464.09 461.75 L 454.18 455.10 L 451.79 456.51 L 450.83 447.64 L 434.24 439.27 L 431.67 440.38 L 429.23 437.27 L 429.49 431.31 L 432.95 429.64 L 433.10 426.69 L 443.43 430.86 L 451.82 426.48 L 437.33 411.87 L 439.94 409.20 L 434.95 404.67 L 438.93 401.74 L 437.49 396.71 L 439.77 392.79 L 446.29 394.28 L 452.72 392.48 L 453.64 388.20 L 451.14 387.64 L 449.49 383.37 L 445.81 380.12 L 439.66 380.71 L 436.87 387.91 L 423.06 391.52 L 420.90 390.39 L 420.67 394.77 L 409.06 399.97 L 411.01 402.47 L 406.73 404.80 L 402.90 402.93 L 402.34 408.01 L 397.51 411.23 L 396.30 408.04 L 392.02 408.40 L 393.23 405.90 L 390.04 406.18 L 390.54 400.64 L 382.77 401.06 L 381.18 395.07 L 378.85 394.07 L 379.15 389.43 L 376.65 386.74 L 373.88 385.39 L 371.52 387.67 L 365.51 388.17 L 359.84 384.85 L 358.88 383.08 L 362.27 378.13 L 359.01 376.85 L 356.87 372.33 L 351.79 373.23 L 351.23 375.62 L 349.15 373.46 L 347.79 375.08 L 352.04 379.72 L 349.60 383.04 L 351.11 388.11 L 340.81 394.50 L 336.64 394.55 L 335.53 398.60 L 339.09 401.06 L 339.14 405.33 L 330.90 405.04 L 328.55 409.77 Z"/>
  <path id="Liguria" class="regione" d="M 89.55 270.79 L 86.27 273.50 L 85.57 278.08 L 80.25 280.32 L 79.85 284.10 L 75.91 286.20 L 77.67 293.83 L 86.80 294.47 L 112.49 284.93 L 118.93 279.75 L 118.25 276.47 L 122.27 272.24 L 125.10 264.27 L 134.98 259.75 L 136.66 252.05 L 155.60 240.63 L 180.66 246.09 L 180.96 249.27 L 185.62 251.26 L 186.61 247.14 L 224.91 272.03 L 226.14 270.42 L 223.56 267.54 L 225.97 266.84 L 233.40 272.90 L 236.87 272.27 L 240.13 267.77 L 237.10 265.98 L 234.64 267.71 L 234.04 262.06 L 228.86 262.11 L 231.48 259.62 L 229.85 258.52 L 227.07 260.92 L 226.40 253.70 L 215.67 245.60 L 210.56 240.18 L 199.79 241.24 L 201.74 236.01 L 203.53 235.93 L 202.72 229.34 L 197.70 226.16 L 193.69 228.08 L 190.97 225.59 L 184.74 225.11 L 180.40 228.33 L 172.70 220.75 L 167.36 219.93 L 164.26 223.02 L 166.49 229.45 L 160.69 229.39 L 158.22 235.49 L 153.47 227.76 L 147.71 227.36 L 144.66 233.74 L 134.58 233.41 L 130.80 237.40 L 123.98 232.12 L 120.34 237.40 L 122.00 240.33 L 120.83 242.37 L 117.38 244.04 L 114.33 250.97 L 111.63 251.00 L 113.61 253.13 L 112.00 257.94 L 114.03 261.09 L 112.18 263.88 L 108.42 263.01 L 106.56 264.83 L 108.65 267.12 L 100.39 267.23 L 92.65 264.23 L 89.86 267.24 L 92.43 268.91 L 89.55 270.79 Z"/>
  <path id="Lombardia" class="regione" d="M 228.18 182.61 L 228.66 182.33 L 230.83 181.95 L 230.49 184.88 L 234.99 182.19 L 238.91 189.71 L 240.97 189.26 L 241.64 191.15 L 246.24 189.46 L 258.42 195.93 L 261.64 194.41 L 263.56 197.83 L 268.95 200.34 L 275.80 199.33 L 279.61 194.23 L 280.13 196.27 L 282.22 193.78 L 283.26 197.34 L 292.63 200.37 L 304.34 196.18 L 309.39 198.64 L 317.06 198.22 L 318.93 196.24 L 326.94 197.25 L 317.17 191.62 L 316.65 188.47 L 310.85 188.15 L 312.65 183.87 L 308.97 182.69 L 305.89 185.24 L 302.19 183.75 L 302.63 180.45 L 299.30 180.68 L 299.03 176.89 L 289.84 171.89 L 286.60 167.84 L 284.75 167.83 L 282.27 169.01 L 282.46 167.03 L 279.62 164.81 L 281.47 158.64 L 276.87 158.55 L 277.23 156.64 L 275.58 156.40 L 277.13 156.00 L 275.88 143.30 L 289.43 124.20 L 280.43 123.47 L 271.59 128.32 L 269.69 127.96 L 270.39 125.69 L 270.45 125.60 L 267.75 124.48 L 268.22 116.68 L 264.67 111.19 L 266.22 106.12 L 270.84 100.64 L 271.80 96.65 L 270.26 94.71 L 273.16 90.06 L 271.87 83.35 L 268.93 80.91 L 276.02 77.04 L 274.10 71.58 L 266.14 69.34 L 264.68 66.44 L 254.62 64.81 L 251.31 62.50 L 251.08 57.87 L 242.24 59.81 L 238.53 65.72 L 238.25 73.47 L 246.36 76.61 L 242.38 82.76 L 246.91 89.05 L 240.23 92.38 L 238.53 91.38 L 239.25 88.60 L 235.42 86.74 L 235.47 81.32 L 233.09 79.08 L 221.48 82.64 L 218.91 81.33 L 217.45 86.11 L 211.35 86.59 L 206.57 85.13 L 201.28 79.22 L 201.37 68.38 L 198.02 71.79 L 194.91 68.17 L 189.82 69.25 L 187.58 74.25 L 189.70 76.23 L 190.95 83.33 L 187.59 91.02 L 176.34 100.47 L 176.74 104.95 L 172.33 107.30 L 173.57 110.88 L 171.04 112.80 L 177.43 118.58 L 173.92 125.05 L 166.16 124.40 L 167.95 121.20 L 165.00 113.80 L 158.07 111.27 L 162.30 104.11 L 155.31 100.25 L 153.53 102.24 L 154.27 108.86 L 144.37 118.53 L 145.88 124.13 L 143.13 127.90 L 145.89 132.82 L 149.57 134.16 L 148.79 137.19 L 151.35 137.22 L 151.76 140.51 L 149.95 140.60 L 152.78 143.46 L 153.43 150.08 L 158.17 152.88 L 161.72 160.53 L 153.80 161.84 L 156.48 164.01 L 151.98 168.91 L 148.02 164.16 L 143.09 163.22 L 139.69 168.94 L 142.57 172.04 L 141.25 172.04 L 142.58 173.76 L 141.23 174.64 L 142.86 176.23 L 141.36 176.71 L 144.99 176.38 L 142.54 178.81 L 146.89 182.88 L 149.96 191.63 L 153.22 189.95 L 157.16 192.56 L 164.56 188.17 L 166.05 193.49 L 169.25 194.17 L 171.74 200.62 L 175.34 202.32 L 176.38 208.22 L 182.03 208.55 L 182.75 212.02 L 185.41 213.62 L 184.57 219.07 L 186.92 219.18 L 186.79 216.60 L 188.35 219.61 L 192.55 218.71 L 191.49 217.48 L 193.02 215.05 L 190.11 211.94 L 194.98 207.82 L 193.61 203.90 L 189.48 201.75 L 198.03 186.27 L 203.69 184.52 L 205.78 186.63 L 207.02 185.42 L 205.60 183.05 L 206.85 182.15 L 209.33 184.88 L 211.55 182.03 L 212.62 186.36 L 217.82 188.26 L 219.95 183.74 L 224.44 188.77 L 225.37 185.21 L 229.10 186.45 L 228.18 182.61 Z"/>
  <path id="Marche" class="regione" d="M 479.49 369.08 L 486.08 367.38 L 479.50 344.76 L 467.37 317.24 L 467.47 313.18 L 459.88 306.54 L 456.42 308.16 L 447.94 303.87 L 421.54 282.12 L 411.54 278.38 L 410.52 286.62 L 407.24 288.06 L 406.60 290.49 L 402.67 289.89 L 401.25 285.36 L 398.23 287.13 L 397.88 284.40 L 395.18 282.87 L 394.76 284.46 L 390.29 284.23 L 388.45 284.04 L 389.62 283.89 L 389.46 279.55 L 384.23 279.15 L 379.88 283.14 L 373.79 282.36 L 370.46 296.26 L 374.06 295.55 L 376.03 298.07 L 376.96 295.99 L 381.73 295.34 L 387.31 299.76 L 384.71 300.06 L 384.74 302.89 L 383.16 298.33 L 382.36 302.01 L 375.45 305.54 L 377.28 308.13 L 382.63 310.16 L 387.32 308.07 L 387.27 310.70 L 383.69 313.28 L 384.81 315.23 L 395.55 315.49 L 403.19 324.18 L 412.90 320.80 L 413.44 324.37 L 411.34 326.34 L 414.67 331.79 L 414.03 335.21 L 418.93 341.59 L 418.74 344.91 L 416.64 346.60 L 420.97 350.91 L 420.86 361.59 L 426.04 364.77 L 426.00 369.42 L 427.58 366.22 L 431.00 365.26 L 437.82 372.56 L 442.62 369.63 L 444.41 374.52 L 439.66 380.71 L 445.81 380.12 L 449.49 383.37 L 452.63 384.52 L 458.83 380.66 L 461.71 373.82 L 469.97 374.61 L 472.72 371.15 L 479.49 369.08 Z M 378.67 292.18 L 374.45 292.01 L 376.33 294.89 L 378.67 292.18 Z"/>
  <path id="Molise" class="regione" d="M 515.93 487.50 L 530.03 494.06 L 535.21 490.18 L 539.68 490.24 L 541.66 486.76 L 546.24 489.03 L 555.90 483.92 L 551.39 480.52 L 551.20 472.91 L 552.83 470.71 L 557.04 472.67 L 565.22 465.75 L 561.62 460.66 L 564.27 447.46 L 555.16 440.98 L 541.24 435.71 L 540.12 437.92 L 541.38 438.92 L 522.77 461.20 L 520.55 461.00 L 519.75 454.55 L 515.56 451.35 L 513.40 452.79 L 509.64 448.80 L 500.89 455.70 L 503.89 462.26 L 502.46 460.79 L 499.27 462.40 L 498.32 465.64 L 495.92 463.16 L 492.66 467.73 L 487.70 467.23 L 490.73 470.07 L 491.40 476.63 L 493.13 478.19 L 491.80 479.59 L 493.23 480.88 L 489.74 483.29 L 491.00 484.28 L 490.05 485.90 L 494.18 491.67 L 498.60 492.19 L 496.48 487.18 L 499.19 482.21 L 502.02 484.55 L 502.58 482.74 L 506.87 483.02 L 515.93 487.50 Z"/>
  <path id="Piemonte" class="regione" d="M 106.56 264.83 L 108.42 263.01 L 112.18 263.88 L 114.03 261.09 L 112.00 257.94 L 113.61 253.13 L 111.63 251.00 L 114.33 250.97 L 117.38 244.04 L 120.83 242.37 L 122.00 240.33 L 120.34 237.40 L 123.98 232.12 L 130.80 237.40 L 134.58 233.41 L 144.66 233.74 L 147.71 227.36 L 153.47 227.76 L 158.22 235.49 L 160.69 229.39 L 166.49 229.45 L 164.26 223.02 L 167.36 219.93 L 172.70 220.75 L 180.40 228.33 L 184.74 225.11 L 184.57 219.07 L 185.41 213.62 L 182.75 212.02 L 182.03 208.55 L 176.38 208.22 L 175.34 202.32 L 171.74 200.62 L 169.25 194.17 L 166.05 193.49 L 164.56 188.17 L 157.16 192.56 L 153.22 189.95 L 149.96 191.63 L 146.89 182.88 L 142.54 178.81 L 144.99 176.38 L 141.36 176.71 L 142.86 176.23 L 141.23 174.64 L 142.58 173.76 L 141.25 172.04 L 142.57 172.04 L 139.69 168.94 L 143.09 163.22 L 148.02 164.16 L 151.98 168.91 L 156.48 164.01 L 153.80 161.84 L 161.72 160.53 L 158.17 152.88 L 153.43 150.08 L 152.78 143.46 L 149.95 140.60 L 151.76 140.51 L 151.35 137.22 L 148.79 137.19 L 149.57 134.16 L 145.89 132.82 L 143.13 127.90 L 145.88 124.13 L 144.37 118.53 L 154.27 108.86 L 153.53 102.24 L 146.89 100.05 L 141.89 92.50 L 136.15 89.65 L 135.16 85.66 L 137.52 82.81 L 137.57 73.54 L 131.60 72.88 L 127.02 75.64 L 127.79 79.17 L 121.36 84.77 L 116.63 85.40 L 112.96 88.78 L 116.71 91.65 L 118.42 95.35 L 117.63 98.28 L 110.01 102.06 L 108.59 109.37 L 101.99 110.58 L 99.13 117.27 L 99.04 127.55 L 103.28 131.68 L 101.73 136.45 L 103.94 139.88 L 101.44 144.17 L 98.15 143.27 L 90.72 147.58 L 82.82 146.54 L 80.10 144.15 L 75.17 144.86 L 68.00 150.34 L 61.11 150.52 L 58.17 154.17 L 53.05 153.57 L 52.46 150.46 L 50.48 154.56 L 51.13 157.35 L 55.70 159.75 L 50.80 166.07 L 52.50 170.00 L 51.81 173.00 L 48.36 175.87 L 41.59 176.04 L 40.54 179.14 L 36.98 179.19 L 37.11 181.83 L 33.99 182.61 L 28.99 179.97 L 20.00 184.49 L 23.00 191.45 L 27.63 191.98 L 28.88 196.30 L 27.94 200.88 L 35.11 205.47 L 39.50 204.42 L 44.26 206.36 L 45.40 207.74 L 43.88 210.58 L 48.68 218.76 L 41.65 219.76 L 40.52 221.79 L 41.78 224.63 L 39.60 228.42 L 34.60 231.83 L 35.96 236.04 L 40.57 240.31 L 37.01 241.11 L 36.61 245.96 L 43.57 252.74 L 44.38 256.46 L 54.33 258.69 L 61.74 264.29 L 65.82 263.94 L 66.69 266.34 L 87.65 261.49 L 86.49 265.07 L 89.55 270.79 L 92.43 268.91 L 89.86 267.24 L 92.65 264.23 L 100.39 267.23 L 108.65 267.12 L 106.56 264.83 Z"/>
  <path id="Puglia" class="regione" d="M 585.93 432.95 L 588.40 432.12 L 586.30 431.36 L 585.93 432.95 Z M 674.77 573.99 L 682.49 566.29 L 690.36 563.92 L 699.12 569.06 L 696.23 573.28 L 715.76 582.53 L 738.30 583.41 L 747.86 597.90 L 747.57 600.98 L 745.45 602.42 L 748.27 604.11 L 746.81 606.94 L 750.29 612.84 L 756.78 618.36 L 769.45 624.14 L 772.23 622.04 L 773.89 607.43 L 780.00 598.62 L 774.85 583.55 L 762.64 570.21 L 752.41 563.45 L 749.64 560.27 L 750.13 557.51 L 748.20 554.16 L 742.60 553.98 L 744.85 552.57 L 743.26 550.23 L 736.92 549.73 L 713.88 538.28 L 689.77 519.11 L 656.72 507.10 L 616.48 486.01 L 613.28 480.37 L 612.92 473.57 L 631.41 460.19 L 631.30 451.21 L 629.13 449.08 L 620.07 445.60 L 581.52 449.74 L 564.27 447.46 L 561.62 460.66 L 565.22 465.75 L 557.04 472.67 L 552.83 470.71 L 551.20 472.91 L 551.39 480.52 L 555.90 483.92 L 561.86 488.62 L 561.70 491.85 L 559.15 493.38 L 560.03 496.67 L 563.77 497.93 L 564.95 500.96 L 568.24 500.48 L 573.04 503.53 L 571.15 504.64 L 572.20 507.82 L 568.88 511.84 L 574.07 516.44 L 577.50 516.26 L 577.89 516.33 L 581.07 515.40 L 590.13 519.56 L 592.86 516.05 L 605.96 516.90 L 611.06 512.59 L 616.37 515.01 L 621.96 521.20 L 621.08 524.90 L 617.86 527.62 L 627.10 532.65 L 629.78 530.08 L 632.31 531.00 L 635.74 538.82 L 644.95 548.39 L 651.40 543.85 L 653.80 546.94 L 653.61 544.70 L 655.95 545.95 L 656.19 543.74 L 665.71 547.85 L 663.89 548.79 L 665.86 549.97 L 664.46 561.00 L 666.48 564.91 L 665.41 567.23 L 670.69 569.08 L 674.77 573.99 Z"/>
  <path id="Sardegna" class="regione" d="M 127.59 674.28 L 122.30 676.38 L 123.67 680.73 L 127.50 681.03 L 127.59 674.28 Z M 128.64 515.46 L 125.41 515.55 L 126.05 518.00 L 121.91 520.79 L 121.26 525.19 L 124.09 525.41 L 122.82 522.16 L 125.93 518.84 L 129.06 520.04 L 130.22 516.86 L 128.64 515.46 Z M 195.13 499.08 L 195.18 500.51 L 196.41 499.26 L 195.13 499.08 Z M 198.54 508.72 L 198.62 507.01 L 196.93 507.85 L 198.54 508.72 Z M 201.62 508.90 L 201.62 508.92 L 203.01 509.34 L 201.62 508.90 Z M 201.62 508.90 L 202.69 504.50 L 201.27 503.62 L 199.82 508.35 L 201.62 508.90 Z M 199.31 505.22 L 198.24 501.95 L 195.61 505.63 L 198.43 506.90 L 200.41 505.07 L 199.31 505.22 Z M 193.14 505.24 L 194.69 503.54 L 193.06 503.20 L 193.14 505.24 Z M 135.06 680.71 L 131.28 680.40 L 130.18 682.83 L 133.60 692.83 L 136.25 692.20 L 137.88 684.95 L 143.83 685.88 L 145.33 693.37 L 147.66 694.73 L 146.61 698.58 L 149.15 698.46 L 148.90 701.04 L 149.48 698.26 L 154.43 695.19 L 162.46 699.75 L 172.54 690.77 L 174.69 685.05 L 172.87 682.56 L 172.88 677.64 L 177.84 672.01 L 182.02 674.65 L 185.14 670.94 L 190.35 672.04 L 199.74 679.60 L 203.91 678.85 L 205.25 681.87 L 205.19 679.75 L 207.82 677.98 L 208.52 668.87 L 212.25 665.22 L 209.95 660.96 L 213.06 651.52 L 213.14 635.77 L 216.31 619.07 L 215.37 615.19 L 217.54 612.75 L 215.66 608.26 L 218.80 600.53 L 212.31 592.06 L 211.66 586.01 L 215.40 579.02 L 220.60 574.60 L 224.58 564.56 L 219.82 557.21 L 217.65 544.82 L 214.65 541.81 L 215.65 537.81 L 218.30 537.05 L 211.15 533.31 L 212.96 530.80 L 209.40 532.48 L 203.97 531.40 L 208.52 530.14 L 208.99 525.55 L 210.82 523.91 L 214.27 524.56 L 210.59 522.64 L 207.27 523.87 L 207.65 521.06 L 204.11 523.40 L 206.31 516.75 L 208.25 515.87 L 205.41 511.20 L 200.29 515.27 L 199.23 511.32 L 197.67 511.14 L 198.82 509.55 L 195.43 509.01 L 194.99 507.00 L 192.98 508.84 L 190.27 508.18 L 190.09 506.03 L 189.45 508.20 L 189.69 505.31 L 186.79 502.73 L 180.98 503.74 L 182.71 509.68 L 181.51 511.32 L 172.67 513.81 L 167.28 520.58 L 164.07 521.81 L 158.39 530.58 L 152.81 531.18 L 141.87 538.65 L 127.94 537.05 L 122.80 531.75 L 123.03 528.06 L 120.71 526.43 L 119.16 529.23 L 122.13 533.58 L 116.37 546.31 L 120.92 550.26 L 119.76 554.04 L 117.06 555.36 L 117.46 558.98 L 118.32 560.57 L 120.27 555.77 L 121.85 557.19 L 120.49 559.67 L 126.68 557.87 L 131.73 566.32 L 133.42 572.80 L 132.27 578.91 L 137.15 580.49 L 138.70 583.32 L 136.96 592.32 L 139.34 599.75 L 136.82 602.73 L 131.88 603.98 L 134.29 605.53 L 133.32 614.91 L 135.66 618.69 L 139.27 614.43 L 143.73 618.56 L 139.93 630.68 L 137.21 626.11 L 136.22 626.95 L 137.90 640.14 L 132.40 651.70 L 134.20 654.37 L 131.66 658.68 L 135.75 665.54 L 131.35 672.01 L 134.20 677.19 L 134.21 675.31 L 135.77 676.80 L 135.78 679.75 L 138.08 680.44 L 138.37 684.66 L 135.06 680.71 Z"/>
  <path id="Sicilia" class="regione" d="M 398.86 977.45 L 396.51 977.87 L 403.58 980.00 L 403.51 977.79 L 398.86 977.45 Z M 359.43 872.16 L 363.11 876.97 L 367.04 874.97 L 364.27 869.64 L 359.41 868.98 L 359.43 872.16 Z M 551.44 739.21 L 555.76 741.60 L 553.16 737.10 L 551.44 739.21 Z M 549.03 732.92 L 552.47 736.12 L 554.11 732.35 L 552.92 729.47 L 550.41 729.27 L 549.03 732.92 Z M 514.19 728.61 L 514.83 726.96 L 513.35 726.92 L 514.19 728.61 Z M 528.94 726.72 L 528.31 724.50 L 526.08 724.28 L 528.94 726.72 Z M 545.61 727.94 L 547.18 728.01 L 547.24 724.41 L 543.04 724.22 L 542.39 726.03 L 545.61 727.94 Z M 569.16 708.65 L 570.84 705.90 L 567.45 706.77 L 569.16 708.65 Z M 555.43 879.82 L 560.35 884.85 L 563.86 882.78 L 561.42 873.39 L 562.20 868.50 L 567.37 859.67 L 572.00 857.62 L 572.88 854.95 L 576.95 854.98 L 572.77 851.10 L 574.42 846.63 L 569.60 844.84 L 571.02 843.24 L 568.71 842.85 L 569.16 840.88 L 567.30 839.45 L 567.11 835.81 L 569.21 835.09 L 569.77 837.49 L 569.94 835.30 L 571.83 835.21 L 568.60 831.06 L 561.82 829.28 L 561.12 813.97 L 566.67 807.63 L 568.90 792.92 L 586.96 766.29 L 592.24 756.40 L 591.06 756.70 L 592.04 753.04 L 596.98 750.09 L 589.95 747.53 L 574.12 755.38 L 570.83 754.51 L 570.17 750.00 L 568.96 757.03 L 561.86 762.34 L 553.50 759.87 L 550.09 756.59 L 541.81 759.93 L 539.27 758.77 L 531.73 766.65 L 511.22 771.82 L 495.62 770.93 L 492.85 769.02 L 475.07 774.92 L 463.74 769.25 L 461.83 766.91 L 461.91 763.14 L 455.74 764.61 L 450.96 762.69 L 450.87 757.48 L 447.70 753.97 L 439.76 758.44 L 434.27 756.65 L 430.87 760.98 L 432.50 765.20 L 421.29 770.42 L 415.42 765.74 L 412.69 757.60 L 410.25 756.79 L 410.74 760.90 L 409.05 763.38 L 405.80 763.21 L 404.86 765.99 L 399.98 766.76 L 395.06 771.06 L 395.45 775.27 L 392.93 780.03 L 394.64 782.91 L 390.90 788.99 L 394.02 797.38 L 396.64 800.68 L 402.60 802.65 L 406.60 808.88 L 422.26 807.47 L 428.80 814.21 L 438.32 814.51 L 444.88 822.81 L 456.19 830.73 L 463.04 831.60 L 475.56 842.88 L 480.21 843.27 L 487.37 847.89 L 496.50 846.15 L 508.70 850.83 L 515.95 858.85 L 522.94 872.90 L 531.63 874.67 L 536.44 878.72 L 541.53 879.76 L 547.66 877.48 L 552.62 880.54 L 555.43 879.82 Z M 365.75 772.09 L 369.22 776.78 L 368.18 772.51 L 365.75 772.09 Z M 381.65 778.66 L 387.17 779.59 L 383.17 776.30 L 381.65 778.66 Z"/>
  <path id="Toscana" class="regione" d="M 292.02 410.60 L 291.01 412.25 L 295.06 414.59 L 294.48 411.02 L 292.02 410.60 Z M 223.01 354.34 L 223.56 358.55 L 225.97 355.09 L 224.51 352.68 L 223.01 354.34 Z M 260.40 378.50 L 263.48 377.08 L 264.04 371.39 L 262.04 369.21 L 258.18 375.47 L 252.47 372.80 L 251.24 376.27 L 247.55 374.24 L 242.25 376.76 L 245.79 381.44 L 250.97 381.32 L 251.22 379.40 L 254.02 380.62 L 254.82 378.62 L 256.10 380.57 L 257.48 378.25 L 260.17 382.39 L 263.28 382.51 L 260.40 378.50 Z M 378.67 292.18 L 374.45 292.01 L 376.33 294.89 L 378.67 292.18 Z M 236.87 272.27 L 244.76 277.95 L 250.79 286.35 L 253.42 297.82 L 254.24 312.56 L 256.10 310.35 L 254.46 313.87 L 269.05 337.84 L 269.94 351.54 L 268.54 358.88 L 266.48 360.02 L 267.26 364.45 L 270.40 365.43 L 270.69 363.09 L 276.95 362.52 L 285.16 366.27 L 285.10 372.65 L 282.38 375.14 L 296.55 380.36 L 300.29 386.85 L 305.10 389.54 L 307.48 395.24 L 311.02 396.74 L 310.69 404.62 L 305.14 405.93 L 305.72 408.93 L 309.33 411.60 L 315.84 406.68 L 328.55 409.77 L 330.90 405.04 L 339.14 405.33 L 339.09 401.06 L 335.53 398.60 L 336.64 394.55 L 340.81 394.50 L 351.11 388.11 L 349.60 383.04 L 352.04 379.72 L 347.79 375.08 L 349.15 373.46 L 351.23 375.62 L 351.79 373.23 L 356.87 372.33 L 360.94 369.32 L 359.28 366.22 L 362.46 354.52 L 358.71 352.37 L 358.79 346.29 L 365.13 343.08 L 365.75 338.23 L 369.50 339.13 L 377.91 334.16 L 376.06 332.63 L 374.90 335.33 L 372.02 334.28 L 371.57 329.03 L 365.20 324.30 L 372.75 319.72 L 369.68 315.40 L 373.38 314.89 L 377.28 308.13 L 375.45 305.54 L 382.36 302.01 L 383.16 298.33 L 384.74 302.89 L 384.71 300.06 L 387.31 299.76 L 381.73 295.34 L 376.96 295.99 L 376.03 298.07 L 374.06 295.55 L 370.46 296.26 L 362.73 295.58 L 357.82 291.38 L 353.46 291.77 L 345.05 286.02 L 345.49 282.36 L 340.92 276.73 L 347.78 265.83 L 337.03 266.60 L 339.00 262.78 L 332.65 262.84 L 326.57 256.09 L 317.60 263.02 L 312.16 263.35 L 316.51 267.26 L 302.80 268.41 L 299.78 266.70 L 300.09 264.42 L 294.02 270.73 L 283.23 262.93 L 276.71 262.65 L 275.61 265.92 L 273.40 266.22 L 269.26 262.89 L 266.69 257.44 L 255.33 252.35 L 251.94 253.66 L 245.06 246.74 L 241.99 247.22 L 236.35 243.68 L 235.02 242.41 L 235.98 239.68 L 233.80 237.43 L 224.18 237.28 L 220.39 243.60 L 215.67 245.60 L 226.40 253.70 L 227.07 260.92 L 229.85 258.52 L 231.48 259.62 L 228.86 262.11 L 234.04 262.06 L 234.64 267.71 L 237.10 265.98 L 240.13 267.77 L 236.87 272.27 Z"/>
  <path id="Trentino Alto Adige" class="regione" d="M 270.45 125.60 L 270.39 125.69 L 269.69 127.96 L 271.59 128.32 L 280.43 123.47 L 289.43 124.20 L 292.46 125.95 L 289.66 133.65 L 295.65 137.38 L 300.41 133.96 L 307.49 136.09 L 311.06 132.04 L 310.77 127.99 L 312.61 128.29 L 311.72 125.80 L 314.94 122.28 L 316.16 116.92 L 321.98 117.84 L 322.55 115.02 L 324.06 115.12 L 323.55 111.73 L 334.97 109.39 L 337.22 112.93 L 343.50 112.90 L 342.24 107.36 L 344.82 106.55 L 343.46 102.62 L 356.25 100.61 L 361.18 94.80 L 357.81 91.78 L 359.06 89.77 L 356.68 89.45 L 356.25 87.28 L 353.23 87.98 L 352.83 83.45 L 349.17 80.72 L 353.04 80.06 L 354.02 74.43 L 356.50 73.72 L 355.83 71.44 L 351.66 70.81 L 351.79 68.95 L 361.43 65.29 L 363.49 66.26 L 366.58 61.97 L 367.96 54.48 L 376.04 59.01 L 375.89 61.16 L 380.30 58.29 L 388.22 58.80 L 387.87 57.15 L 394.12 54.09 L 388.12 51.06 L 386.44 46.25 L 381.75 45.56 L 383.22 40.76 L 381.11 37.17 L 377.42 38.04 L 372.80 34.71 L 374.35 32.74 L 371.33 27.04 L 376.69 25.28 L 378.95 21.98 L 375.53 20.00 L 347.39 30.25 L 339.74 26.60 L 334.06 28.98 L 330.10 26.75 L 326.28 30.39 L 320.02 28.24 L 310.10 30.51 L 310.16 32.59 L 305.72 34.92 L 304.90 42.38 L 302.07 43.81 L 301.06 47.03 L 282.41 45.22 L 284.54 42.35 L 278.37 37.89 L 270.89 40.90 L 266.29 39.32 L 260.39 54.07 L 261.39 57.63 L 267.18 59.45 L 264.68 66.44 L 266.14 69.34 L 274.10 71.58 L 276.02 77.04 L 268.93 80.91 L 271.87 83.35 L 273.16 90.06 L 270.26 94.71 L 271.80 96.65 L 270.84 100.64 L 266.22 106.12 L 264.67 111.19 L 268.22 116.68 L 267.75 124.48 L 270.45 125.60 Z"/>
  <path id="Umbria" class="regione" d="M 382.77 401.06 L 390.54 400.64 L 390.04 406.18 L 393.23 405.90 L 392.02 408.40 L 396.30 408.04 L 397.51 411.23 L 402.34 408.01 L 402.90 402.93 L 406.73 404.80 L 411.01 402.47 L 409.06 399.97 L 420.67 394.77 L 420.90 390.39 L 423.06 391.52 L 436.87 387.91 L 439.66 380.71 L 444.41 374.52 L 442.62 369.63 L 437.82 372.56 L 431.00 365.26 L 427.58 366.22 L 426.00 369.42 L 426.04 364.77 L 420.86 361.59 L 420.97 350.91 L 416.64 346.60 L 418.74 344.91 L 418.93 341.59 L 414.03 335.21 L 414.67 331.79 L 411.34 326.34 L 413.44 324.37 L 412.90 320.80 L 403.19 324.18 L 395.55 315.49 L 384.81 315.23 L 383.69 313.28 L 387.27 310.70 L 387.32 308.07 L 382.63 310.16 L 377.28 308.13 L 373.38 314.89 L 369.68 315.40 L 372.75 319.72 L 365.20 324.30 L 371.57 329.03 L 372.02 334.28 L 374.90 335.33 L 376.06 332.63 L 377.91 334.16 L 369.50 339.13 L 365.75 338.23 L 365.13 343.08 L 358.79 346.29 L 358.71 352.37 L 362.46 354.52 L 359.28 366.22 L 360.94 369.32 L 356.87 372.33 L 359.01 376.85 L 362.27 378.13 L 358.88 383.08 L 359.84 384.85 L 365.51 388.17 L 371.52 387.67 L 373.88 385.39 L 376.65 386.74 L 379.15 389.43 L 378.85 394.07 L 381.18 395.07 L 382.77 401.06 Z"/>
  <path id="Valle d'Aosta" class="regione" d="M 98.15 143.27 L 101.44 144.17 L 103.94 139.88 L 101.73 136.45 L 103.28 131.68 L 99.04 127.55 L 99.13 117.27 L 91.94 115.36 L 89.92 116.67 L 86.31 112.38 L 80.33 111.37 L 68.41 118.89 L 62.69 116.83 L 56.45 121.89 L 53.78 120.35 L 50.79 122.09 L 46.47 116.76 L 40.08 123.02 L 32.21 123.96 L 31.59 133.21 L 38.46 139.32 L 43.87 140.25 L 42.39 144.51 L 43.86 151.36 L 50.48 154.56 L 52.46 150.46 L 53.05 153.57 L 58.17 154.17 L 61.11 150.52 L 68.00 150.34 L 75.17 144.86 L 80.10 144.15 L 82.82 146.54 L 90.72 147.58 L 98.15 143.27 Z"/>
  <path id="Veneto" class="regione" d="M 381.78 201.92 L 382.46 204.77 L 385.36 205.53 L 388.80 210.14 L 393.32 206.06 L 398.88 196.00 L 385.16 185.72 L 382.51 172.88 L 386.62 160.34 L 421.68 142.28 L 433.92 139.89 L 431.46 138.81 L 429.34 132.24 L 427.97 133.17 L 428.26 130.07 L 425.69 127.84 L 427.05 125.77 L 425.02 123.11 L 423.00 125.56 L 418.59 122.79 L 415.13 125.33 L 413.44 122.46 L 406.36 127.76 L 402.34 123.78 L 401.45 125.74 L 398.93 124.55 L 395.88 116.86 L 390.54 114.09 L 389.01 107.05 L 394.49 101.81 L 395.26 97.86 L 392.13 95.53 L 392.07 93.22 L 385.14 90.70 L 384.15 87.88 L 386.09 84.05 L 393.15 79.86 L 392.61 78.03 L 397.47 71.98 L 405.56 71.92 L 403.84 68.05 L 411.44 65.44 L 410.36 57.90 L 394.12 54.09 L 387.87 57.15 L 388.22 58.80 L 380.30 58.29 L 375.89 61.16 L 376.04 59.01 L 367.96 54.48 L 366.58 61.97 L 363.49 66.26 L 361.43 65.29 L 351.79 68.95 L 351.66 70.81 L 355.83 71.44 L 356.50 73.72 L 354.02 74.43 L 353.04 80.06 L 349.17 80.72 L 352.83 83.45 L 353.23 87.98 L 356.25 87.28 L 356.68 89.45 L 359.06 89.77 L 357.81 91.78 L 361.18 94.80 L 356.25 100.61 L 343.46 102.62 L 344.82 106.55 L 342.24 107.36 L 343.50 112.90 L 337.22 112.93 L 334.97 109.39 L 323.55 111.73 L 324.06 115.12 L 322.55 115.02 L 321.98 117.84 L 316.16 116.92 L 314.94 122.28 L 311.72 125.80 L 312.61 128.29 L 310.77 127.99 L 311.06 132.04 L 307.49 136.09 L 300.41 133.96 L 295.65 137.38 L 289.66 133.65 L 292.46 125.95 L 289.43 124.20 L 275.88 143.30 L 277.13 156.00 L 275.58 156.40 L 277.23 156.64 L 276.87 158.55 L 281.47 158.64 L 279.62 164.81 L 282.46 167.03 L 282.27 169.01 L 284.75 167.83 L 286.60 167.84 L 289.84 171.89 L 299.03 176.89 L 299.30 180.68 L 302.63 180.45 L 302.19 183.75 L 305.89 185.24 L 308.97 182.69 L 312.65 183.87 L 310.85 188.15 L 316.65 188.47 L 317.17 191.62 L 326.94 197.25 L 327.10 198.99 L 334.03 198.49 L 339.26 202.38 L 350.97 195.07 L 361.30 194.22 L 369.86 195.49 L 372.70 199.09 L 381.25 197.82 L 381.78 201.92 Z"/>
</svg>
